<mxfile host="Electron" modified="2023-10-04T11:59:40.203Z" agent="Mozilla/5.0 (Windows NT 10.0; Win64; x64) AppleWebKit/537.36 (KHTML, like Gecko) draw.io/21.7.5 Chrome/114.0.5735.289 Electron/25.8.1 Safari/537.36" etag="ZuLyJSkkvGlAj82sxs38" version="21.7.5" type="device">
  <diagram name="Page-1" id="8SS0WFzG6OU3zqo_G7p3">
    <mxGraphModel dx="2008" dy="1579" grid="1" gridSize="10" guides="1" tooltips="1" connect="1" arrows="1" fold="1" page="0" pageScale="1" pageWidth="850" pageHeight="1100" math="0" shadow="0">
      <root>
        <mxCell id="0" />
        <mxCell id="1" parent="0" />
        <mxCell id="s9PoUuqLA0t0S0kxsiX0-1" value="File Structure, &lt;br&gt;Command Structure,&lt;br&gt;JSON Schemata, ..." style="rounded=1;whiteSpace=wrap;html=1;fontStyle=1" vertex="1" parent="1">
          <mxGeometry x="-680" y="-450" width="160" height="80" as="geometry" />
        </mxCell>
        <mxCell id="s9PoUuqLA0t0S0kxsiX0-17" style="edgeStyle=orthogonalEdgeStyle;rounded=0;orthogonalLoop=1;jettySize=auto;html=1;" edge="1" parent="1" source="s9PoUuqLA0t0S0kxsiX0-2" target="s9PoUuqLA0t0S0kxsiX0-16">
          <mxGeometry relative="1" as="geometry" />
        </mxCell>
        <mxCell id="s9PoUuqLA0t0S0kxsiX0-2" value="MCData" style="rounded=1;whiteSpace=wrap;html=1;fontStyle=1" vertex="1" parent="1">
          <mxGeometry x="-400" y="-80" width="160" height="80" as="geometry" />
        </mxCell>
        <mxCell id="s9PoUuqLA0t0S0kxsiX0-3" value="Datapack Data" style="rounded=1;whiteSpace=wrap;html=1;fontStyle=1" vertex="1" parent="1">
          <mxGeometry x="-680" y="80" width="160" height="80" as="geometry" />
        </mxCell>
        <mxCell id="s9PoUuqLA0t0S0kxsiX0-7" style="edgeStyle=orthogonalEdgeStyle;rounded=0;orthogonalLoop=1;jettySize=auto;html=1;" edge="1" parent="1" source="s9PoUuqLA0t0S0kxsiX0-5" target="s9PoUuqLA0t0S0kxsiX0-1">
          <mxGeometry relative="1" as="geometry" />
        </mxCell>
        <mxCell id="s9PoUuqLA0t0S0kxsiX0-5" value="DPVersion" style="rounded=1;whiteSpace=wrap;html=1;fontStyle=1" vertex="1" parent="1">
          <mxGeometry x="-400" y="-450" width="160" height="80" as="geometry" />
        </mxCell>
        <mxCell id="s9PoUuqLA0t0S0kxsiX0-28" style="edgeStyle=orthogonalEdgeStyle;rounded=0;orthogonalLoop=1;jettySize=auto;html=1;" edge="1" parent="1" source="s9PoUuqLA0t0S0kxsiX0-6" target="s9PoUuqLA0t0S0kxsiX0-3">
          <mxGeometry relative="1" as="geometry" />
        </mxCell>
        <mxCell id="s9PoUuqLA0t0S0kxsiX0-6" value="MCdependency" style="rounded=1;whiteSpace=wrap;html=1;fontStyle=1" vertex="1" parent="1">
          <mxGeometry x="-400" y="80" width="160" height="80" as="geometry" />
        </mxCell>
        <mxCell id="s9PoUuqLA0t0S0kxsiX0-23" style="edgeStyle=orthogonalEdgeStyle;rounded=0;orthogonalLoop=1;jettySize=auto;html=1;entryX=0.5;entryY=1;entryDx=0;entryDy=0;exitX=0;exitY=0.5;exitDx=0;exitDy=0;" edge="1" parent="1" source="s9PoUuqLA0t0S0kxsiX0-40" target="s9PoUuqLA0t0S0kxsiX0-24">
          <mxGeometry relative="1" as="geometry">
            <mxPoint x="-119.99999999999977" y="40" as="sourcePoint" />
            <Array as="points">
              <mxPoint x="100" />
              <mxPoint x="-180" />
            </Array>
          </mxGeometry>
        </mxCell>
        <mxCell id="s9PoUuqLA0t0S0kxsiX0-32" style="edgeStyle=orthogonalEdgeStyle;rounded=0;orthogonalLoop=1;jettySize=auto;html=1;exitX=0;exitY=0.5;exitDx=0;exitDy=0;entryX=0.5;entryY=1;entryDx=0;entryDy=0;" edge="1" parent="1" source="s9PoUuqLA0t0S0kxsiX0-40" target="s9PoUuqLA0t0S0kxsiX0-29">
          <mxGeometry relative="1" as="geometry">
            <mxPoint x="-119.99999999999977" y="40" as="sourcePoint" />
            <Array as="points">
              <mxPoint x="60" />
              <mxPoint x="60" y="160" />
              <mxPoint x="-180" y="160" />
            </Array>
          </mxGeometry>
        </mxCell>
        <mxCell id="s9PoUuqLA0t0S0kxsiX0-31" style="edgeStyle=orthogonalEdgeStyle;rounded=0;orthogonalLoop=1;jettySize=auto;html=1;entryX=0.5;entryY=0;entryDx=0;entryDy=0;" edge="1" parent="1" source="s9PoUuqLA0t0S0kxsiX0-13" target="s9PoUuqLA0t0S0kxsiX0-29">
          <mxGeometry relative="1" as="geometry" />
        </mxCell>
        <mxCell id="s9PoUuqLA0t0S0kxsiX0-13" value="registered MC Execs" style="shape=cube;whiteSpace=wrap;html=1;boundedLbl=1;backgroundOutline=1;darkOpacity=0.05;darkOpacity2=0.1;" vertex="1" parent="1">
          <mxGeometry x="-120" y="40" width="160" height="80" as="geometry" />
        </mxCell>
        <mxCell id="s9PoUuqLA0t0S0kxsiX0-38" style="edgeStyle=orthogonalEdgeStyle;rounded=0;orthogonalLoop=1;jettySize=auto;html=1;entryX=0.5;entryY=0;entryDx=0;entryDy=0;" edge="1" parent="1" source="s9PoUuqLA0t0S0kxsiX0-15" target="s9PoUuqLA0t0S0kxsiX0-36">
          <mxGeometry relative="1" as="geometry" />
        </mxCell>
        <mxCell id="s9PoUuqLA0t0S0kxsiX0-15" value="DPVersions" style="shape=cube;whiteSpace=wrap;html=1;boundedLbl=1;backgroundOutline=1;darkOpacity=0.05;darkOpacity2=0.1;" vertex="1" parent="1">
          <mxGeometry x="-120" y="-480" width="120" height="80" as="geometry" />
        </mxCell>
        <mxCell id="s9PoUuqLA0t0S0kxsiX0-16" value="Full Minecraft Data" style="rounded=1;whiteSpace=wrap;html=1;fontStyle=1" vertex="1" parent="1">
          <mxGeometry x="-680" y="-160" width="160" height="80" as="geometry" />
        </mxCell>
        <mxCell id="s9PoUuqLA0t0S0kxsiX0-19" style="edgeStyle=orthogonalEdgeStyle;rounded=0;orthogonalLoop=1;jettySize=auto;html=1;entryX=0.5;entryY=0;entryDx=0;entryDy=0;" edge="1" parent="1" source="s9PoUuqLA0t0S0kxsiX0-18" target="s9PoUuqLA0t0S0kxsiX0-24">
          <mxGeometry relative="1" as="geometry" />
        </mxCell>
        <mxCell id="s9PoUuqLA0t0S0kxsiX0-18" value="minecraft_data" style="shape=cube;whiteSpace=wrap;html=1;boundedLbl=1;backgroundOutline=1;darkOpacity=0.05;darkOpacity2=0.1;" vertex="1" parent="1">
          <mxGeometry x="-120" y="-120" width="160" height="80" as="geometry" />
        </mxCell>
        <mxCell id="s9PoUuqLA0t0S0kxsiX0-25" style="edgeStyle=orthogonalEdgeStyle;rounded=0;orthogonalLoop=1;jettySize=auto;html=1;" edge="1" parent="1" source="s9PoUuqLA0t0S0kxsiX0-24" target="s9PoUuqLA0t0S0kxsiX0-2">
          <mxGeometry relative="1" as="geometry" />
        </mxCell>
        <mxCell id="s9PoUuqLA0t0S0kxsiX0-24" value="" style="rhombus;whiteSpace=wrap;html=1;" vertex="1" parent="1">
          <mxGeometry x="-190" y="-50" width="20" height="20" as="geometry" />
        </mxCell>
        <mxCell id="s9PoUuqLA0t0S0kxsiX0-30" style="edgeStyle=orthogonalEdgeStyle;rounded=0;orthogonalLoop=1;jettySize=auto;html=1;" edge="1" parent="1" source="s9PoUuqLA0t0S0kxsiX0-29" target="s9PoUuqLA0t0S0kxsiX0-6">
          <mxGeometry relative="1" as="geometry" />
        </mxCell>
        <mxCell id="s9PoUuqLA0t0S0kxsiX0-29" value="" style="rhombus;whiteSpace=wrap;html=1;" vertex="1" parent="1">
          <mxGeometry x="-190" y="110" width="20" height="20" as="geometry" />
        </mxCell>
        <mxCell id="s9PoUuqLA0t0S0kxsiX0-42" style="edgeStyle=orthogonalEdgeStyle;rounded=0;orthogonalLoop=1;jettySize=auto;html=1;entryX=0.5;entryY=0;entryDx=0;entryDy=0;dashed=1;" edge="1" parent="1" source="s9PoUuqLA0t0S0kxsiX0-33" target="s9PoUuqLA0t0S0kxsiX0-41">
          <mxGeometry relative="1" as="geometry" />
        </mxCell>
        <mxCell id="s9PoUuqLA0t0S0kxsiX0-33" value="DPVersionNumbers" style="shape=cube;whiteSpace=wrap;html=1;boundedLbl=1;backgroundOutline=1;darkOpacity=0.05;darkOpacity2=0.1;dashed=1;" vertex="1" parent="1">
          <mxGeometry x="120" y="-410" width="160" height="80" as="geometry" />
        </mxCell>
        <mxCell id="s9PoUuqLA0t0S0kxsiX0-34" style="edgeStyle=orthogonalEdgeStyle;rounded=0;orthogonalLoop=1;jettySize=auto;html=1;entryX=0.5;entryY=1;entryDx=0;entryDy=0;" edge="1" parent="1" source="s9PoUuqLA0t0S0kxsiX0-35" target="s9PoUuqLA0t0S0kxsiX0-36">
          <mxGeometry relative="1" as="geometry" />
        </mxCell>
        <mxCell id="s9PoUuqLA0t0S0kxsiX0-35" value="DPVersionNumber" style="rounded=0;whiteSpace=wrap;html=1;fontStyle=1" vertex="1" parent="1">
          <mxGeometry x="-120" y="-350" width="120" height="40" as="geometry" />
        </mxCell>
        <mxCell id="s9PoUuqLA0t0S0kxsiX0-37" style="edgeStyle=orthogonalEdgeStyle;rounded=0;orthogonalLoop=1;jettySize=auto;html=1;exitX=0;exitY=0.5;exitDx=0;exitDy=0;" edge="1" parent="1" source="s9PoUuqLA0t0S0kxsiX0-36" target="s9PoUuqLA0t0S0kxsiX0-5">
          <mxGeometry relative="1" as="geometry" />
        </mxCell>
        <mxCell id="s9PoUuqLA0t0S0kxsiX0-36" value="" style="rhombus;whiteSpace=wrap;html=1;" vertex="1" parent="1">
          <mxGeometry x="-190" y="-420" width="20" height="20" as="geometry" />
        </mxCell>
        <mxCell id="s9PoUuqLA0t0S0kxsiX0-39" style="edgeStyle=orthogonalEdgeStyle;rounded=0;orthogonalLoop=1;jettySize=auto;html=1;entryX=0.5;entryY=1;entryDx=0;entryDy=0;dashed=1;" edge="1" parent="1" source="s9PoUuqLA0t0S0kxsiX0-40" target="s9PoUuqLA0t0S0kxsiX0-41">
          <mxGeometry relative="1" as="geometry">
            <Array as="points" />
          </mxGeometry>
        </mxCell>
        <mxCell id="zmWf8byqIFq31cRY8JFA-7" style="edgeStyle=orthogonalEdgeStyle;orthogonalLoop=1;jettySize=auto;html=1;entryX=0.5;entryY=1;entryDx=0;entryDy=0;strokeColor=default;rounded=0;jumpStyle=arc;" edge="1" parent="1" source="s9PoUuqLA0t0S0kxsiX0-40" target="zmWf8byqIFq31cRY8JFA-6">
          <mxGeometry relative="1" as="geometry">
            <Array as="points">
              <mxPoint x="60" />
              <mxPoint x="60" y="-160" />
              <mxPoint x="-180" y="-160" />
            </Array>
          </mxGeometry>
        </mxCell>
        <mxCell id="s9PoUuqLA0t0S0kxsiX0-40" value="MCVersionNumber" style="rounded=0;whiteSpace=wrap;html=1;fontStyle=1" vertex="1" parent="1">
          <mxGeometry x="120" y="-20" width="120" height="40" as="geometry" />
        </mxCell>
        <mxCell id="s9PoUuqLA0t0S0kxsiX0-43" style="edgeStyle=orthogonalEdgeStyle;rounded=0;orthogonalLoop=1;jettySize=auto;html=1;dashed=1;" edge="1" parent="1" source="s9PoUuqLA0t0S0kxsiX0-41" target="s9PoUuqLA0t0S0kxsiX0-35">
          <mxGeometry relative="1" as="geometry" />
        </mxCell>
        <mxCell id="s9PoUuqLA0t0S0kxsiX0-41" value="" style="rhombus;whiteSpace=wrap;html=1;dashed=1;" vertex="1" parent="1">
          <mxGeometry x="50" y="-340" width="20" height="20" as="geometry" />
        </mxCell>
        <mxCell id="zmWf8byqIFq31cRY8JFA-8" style="edgeStyle=orthogonalEdgeStyle;rounded=0;orthogonalLoop=1;jettySize=auto;html=1;entryX=1;entryY=0.5;entryDx=0;entryDy=0;" edge="1" parent="1" source="zmWf8byqIFq31cRY8JFA-2" target="s9PoUuqLA0t0S0kxsiX0-16">
          <mxGeometry relative="1" as="geometry" />
        </mxCell>
        <mxCell id="zmWf8byqIFq31cRY8JFA-2" value="CustomMCData" style="rounded=1;whiteSpace=wrap;html=1;fontStyle=1" vertex="1" parent="1">
          <mxGeometry x="-400" y="-240" width="160" height="80" as="geometry" />
        </mxCell>
        <mxCell id="zmWf8byqIFq31cRY8JFA-3" style="edgeStyle=orthogonalEdgeStyle;rounded=0;orthogonalLoop=1;jettySize=auto;html=1;entryX=0.5;entryY=0;entryDx=0;entryDy=0;" edge="1" parent="1" source="zmWf8byqIFq31cRY8JFA-4" target="zmWf8byqIFq31cRY8JFA-6">
          <mxGeometry relative="1" as="geometry" />
        </mxCell>
        <mxCell id="zmWf8byqIFq31cRY8JFA-4" value="custom_data" style="shape=cube;whiteSpace=wrap;html=1;boundedLbl=1;backgroundOutline=1;darkOpacity=0.05;darkOpacity2=0.1;" vertex="1" parent="1">
          <mxGeometry x="-120" y="-280" width="160" height="80" as="geometry" />
        </mxCell>
        <mxCell id="zmWf8byqIFq31cRY8JFA-5" style="edgeStyle=orthogonalEdgeStyle;rounded=0;orthogonalLoop=1;jettySize=auto;html=1;" edge="1" parent="1" source="zmWf8byqIFq31cRY8JFA-6" target="zmWf8byqIFq31cRY8JFA-2">
          <mxGeometry relative="1" as="geometry" />
        </mxCell>
        <mxCell id="zmWf8byqIFq31cRY8JFA-6" value="" style="rhombus;whiteSpace=wrap;html=1;" vertex="1" parent="1">
          <mxGeometry x="-190" y="-210" width="20" height="20" as="geometry" />
        </mxCell>
      </root>
    </mxGraphModel>
  </diagram>
</mxfile>
